<svg xmlns="http://www.w3.org/2000/svg" style="display: none;">
  <symbol id="icon-pen" viewBox="0 0 32 32" fill="#000000" xmlns="http://www.w3.org/2000/svg">
    <path d="M29.024 6.499l-2.467 2.467-3.523-3.523 2.467-2.467c0.973-0.973 2.551-0.973 3.523 0s0.973 2.55 0 3.523zM27.614 9.317c0.195-0.194 0.511-0.194 0.705 0 0.195 0.195 0.195 0.511 0 0.705l-9.16 9.161c-0.195 0.194-0.511 0.194-0.705 0s-0.194-0.51 0-0.704l5.99-5.99-4.934-4.934 2.114-2.113 4.933 4.933 1.057-1.058zM19.511 8.966l3.523 3.523-14.094 14.094-3.523-3.523 14.094-14.094zM2.246 29.754l2.466-5.989 3.523 3.523-5.989 2.466z"></path>
  </symbol>

  <symbol id="icon-book" viewBox="0 0 24 24" fill="#000000" xmlns="http://www.w3.org/2000/svg">
    <path d="M4 19V6.2c0-1.12 0-1.68.218-2.108a2 2 0 0 1 .874-.874C5.52 3 6.08 3 7.2 3h9.6c1.12 0 1.68 0 2.108.218a2 2 0 0 1 .874.874C20 4.52 20 5.08 20 6.2V17H6a2 2 0 0 0-2 2Zm0 0a2 2 0 0 0 2 2h14M9 7h6m-6 4h6m4 6v4" stroke="#000" stroke-width="2" stroke-linecap="round" stroke-linejoin="round"/>
  </symbol>

  <symbol id="icon-envelope" viewBox="0 -5 32 32" preserveAspectRatio="xMidYMid" xmlns="http://www.w3.org/2000/svg">
    <path d="M29 22H3c-1.654 0-3-1.346-3-3V3c0-1.654 1.346-3 3-3h26c1.654 0 3 1.346 3 3v16c0 1.654-1.346 3-3 3ZM3 20h26c.551 0 1-.448 1-1V3.317L16.651 14.759a.997.997 0 0 1-1.302 0L2 3.317V19c0 .552.449 1 1 1ZM28.464 2H3.536L16 12.683 28.464 2Z"/>
  </symbol>

  <symbol id="icon-arrow-right" viewBox="0 0 478.448 478.448" xml:space="preserve" xmlns="http://www.w3.org/2000/svg">
    <path style="fill:#010002" d="m131.659 0-31.165 32.035 213.31 207.197-213.31 207.141 31.156 32.075 246.304-239.216z"/>
  </symbol>

  <symbol id="icon-exclamation-mark" viewBox="0 0 24 24" fill="none" xmlns="http://www.w3.org/2000/svg">
    <path d="M21 12a9 9 0 1 1-18 0 9 9 0 0 1 18 0Z" stroke="#000000" stroke-width="2"/>
    <path d="M12 8v5M12 16v-.011" stroke="#000000" stroke-width="2" stroke-linecap="round"/>
  </symbol>

  <symbol id="icon-bookmark" viewBox="0 0 1920 1920" xmlns="http://www.w3.org/2000/svg">
    <path d="M1585.963 1920 960.48 1544.711 335 1920V170.586C335 76.536 411.536 0 505.586 0h909.79c94.05 0 170.587 76.536 170.587 170.586V1920Z" fill-rule="evenodd"/>
  </symbol>

  <symbol id="icon-feather" viewBox="0 0 512 512" xmlns="http://www.w3.org/2000/svg">
    <path d="M470.7 20 368.2 49.81l41.5-28.09c-26.2 5.92-59.3 17.5-100.9 36.19l-67.9 70.79L265 79.25c-23.3 12.96-48 29.95-71.8 49.85l-15.8 64.3-3.4-47.6c-23.5 21.6-45.6 45.6-63.9 70.9-19.23 26.5-34.26 54.5-41.79 82.4l-28.12-18.8c2.52 23.7 10.31 44.3 23.09 63.2l-33.62-10.3c7.64 23.5 20.13 38.7 41.25 51-11.83 33.3-17.38 68.1-23.34 102.8l18.4 3.1C87.31 277.4 237.9 141.8 374 81.72l6.9 17.38c-121.7 54.5-216.3 146.5-265.8 279.1 18.1.1 35.8-2.1 52.2-6.3l4.9-60.9 13.1 55.5c10.9-4 20.9-8.8 29.8-14.4l-20.7-43.5 32.8 34.8c8-6.4 14.6-13.6 19.6-21.5 30.4-47.5 62.2-94.7 124.8-134.2l-45.7-16.2 70.1 2.1c11.4-5.8 23.4-12.9 32.5-19.6l-49.7-4 74.7-17.6c5.8-5.8 11.2-11.9 16.1-18 17.3-21.94 29-44.78 26.2-65.55-1.3-10.39-7.5-20.16-17.6-25.63-2.5-1.3-5.2-2.45-7.5-3.22z"/>
  </symbol>

  <symbol id="icon-gear" viewBox="0 0 24 24" fill="none" xmlns="http://www.w3.org/2000/svg">
    <path fill-rule="evenodd" clip-rule="evenodd" d="M10 2a1 1 0 0 0-1 1v1.582a7.992 7.992 0 0 0-1.923 1.112l-1.371-.792a1 1 0 0 0-1.366.366l-2 3.464a1 1 0 0 0 .366 1.366l1.37.791a8.062 8.062 0 0 0 0 2.222l-1.37.79a1 1 0 0 0-.366 1.367l2 3.464a1 1 0 0 0 1.366.366l1.371-.792c.581.455 1.228.83 1.923 1.112V21a1 1 0 0 0 1 1h4a1 1 0 0 0 1-1v-1.582a7.994 7.994 0 0 0 1.923-1.112l1.371.792a1 1 0 0 0 1.366-.366l2-3.464a1 1 0 0 0-.366-1.366l-1.37-.791a8.063 8.063 0 0 0 0-2.222l1.37-.79a1 1 0 0 0 .366-1.367l-2-3.464a1 1 0 0 0-1.366-.366l-1.371.792A7.993 7.993 0 0 0 15 4.582V3a1 1 0 0 0-1-1h-4Zm1 3.29V4h2v1.29a1 1 0 0 0 .715.958 5.993 5.993 0 0 1 2.407 1.392 1 1 0 0 0 1.188.14l1.118-.646 1 1.732-1.117.645a1 1 0 0 0-.473 1.097 6.02 6.02 0 0 1 0 2.784 1 1 0 0 0 .473 1.097l1.117.645-1 1.732-1.119-.646a1 1 0 0 0-1.187.14 5.991 5.991 0 0 1-2.407 1.392 1 1 0 0 0-.715.958V20h-2v-1.29a1 1 0 0 0-.715-.958 5.992 5.992 0 0 1-2.407-1.392 1 1 0 0 0-1.188-.14l-1.118.646-1-1.732 1.117-.645a1 1 0 0 0 .473-1.097 6.02 6.02 0 0 1 0-2.784 1 1 0 0 0-.473-1.097l-1.117-.645 1-1.732 1.118.646a1 1 0 0 0 1.188-.14 5.993 5.993 0 0 1 2.407-1.392A1 1 0 0 0 11 5.29ZM10 12a2 2 0 1 1 4 0 2 2 0 0 1-4 0Zm2-4a4 4 0 1 0 0 8 4 4 0 0 0 0-8Z" fill="#000"/>
  </symbol>

  <symbol id="icon-globe" viewBox="0 0 512 512" xml:space="preserve" xmlns="http://www.w3.org/2000/svg">
    <path d="M463.203 105.688a226.822 226.822 0 0 0-9.609-12.484C406.641 36.313 335.531 0 256 0 176.484 0 105.359 36.313 58.406 93.203a218.922 218.922 0 0 0-9.594 12.484C18.078 147.922 0 199.844 0 256c0 56.313 18.156 108.484 49.031 150.719a219.045 219.045 0 0 0 9.844 12.656C105.844 475.922 176.719 512 256 512c79.688 0 150.813-36.406 197.75-93.438a179.704 179.704 0 0 0 9.781-12.641C494.078 363.766 512 312 512 256c0-56.156-18.078-108.078-48.797-150.312zm8.485 142.281H385.75c-.625-32.563-5.031-63.438-12.5-91.219 21.156-7.219 40.594-16.359 57.781-27.063 24.297 33.469 39.016 74.251 40.657 118.282zM263.984 41.906c37.375 5.188 70.438 46.109 89.297 104.281-27.469 7.828-57.594 12.406-89.297 13.094V41.906zm-16 0v117.375c-31.703-.688-61.828-5.266-89.297-13.094 18.86-58.171 51.922-99.093 89.297-104.281zm0 133.36v72.703H142.219c.625-30.766 4.891-60.094 11.984-86.516 28.891 8.297 60.5 13.141 93.781 13.813zm0 88.703v72.703c-33.234.797-64.828 5.734-93.703 14.094-7.141-26.484-11.422-55.922-12.063-86.797h105.766zm0 88.687v117.375c-37.297-5.172-70.313-45.938-89.188-103.938 27.829-8.062 57.938-12.64 89.188-13.437zm16 117.375V352.625c31.703.563 61.859 5.094 89.359 12.875-18.843 58.313-51.937 99.344-89.359 104.531zm0-133.406v-72.656H369.75c-.625 30.625-4.859 59.859-11.891 86.188-28.921-8.219-60.578-12.969-93.875-13.532zm0-88.656v-72.703c33.281-.672 64.891-5.5 93.797-13.797 7.078 26.406 11.344 55.75 11.969 86.5H263.984zm157.297-130.766c-15.656 9.547-33.344 17.703-52.563 24.266-13.219-40.938-33.266-74-57.406-94.219 43.594 11.547 81.844 36.359 109.969 69.953zM200.656 47.25c-24.141 20.234-44.188 53.281-57.406 94.203-19.188-6.563-36.891-14.703-52.531-24.25 28.125-33.578 66.344-58.39 109.937-69.953zM80.969 129.688c17.188 10.703 36.609 19.828 57.75 27.063-7.469 27.781-11.875 58.656-12.5 91.219H40.313c1.64-44.032 16.375-84.814 40.656-118.282zM40.313 263.969h85.906c.625 32.688 5.063 63.688 12.594 91.563-21.094 7.25-40.469 16.359-57.609 27.031-24.454-33.579-39.266-74.454-40.891-118.594zm50.812 131.234c15.875-9.703 33.484-17.797 52.281-24.297 13.219 40.781 33.25 73.703 57.344 93.844-43.406-11.5-81.531-36.156-109.625-69.547zm220.094 69.547c24.25-20.25 44.359-53.438 57.578-94.547 19.281 6.547 37.047 14.719 52.734 24.281-28.218 33.75-66.593 58.672-110.312 70.266zm120.14-82.828c-17.266-10.734-36.781-19.859-58.016-27.063 7.406-27.703 11.781-58.453 12.406-90.891h85.938c-1.609 43.891-16.187 84.47-40.328 117.954z" style="fill:#000"/>
  </symbol>

  <symbol id="icon-arrow-left" viewBox="-4.5 0 20 20" xmlns="http://www.w3.org/2000/svg">
    <path d="M9.61 20 11 18.594 2.739 9.987l.881-.918-.005.005 7.34-7.647L9.586 0 0 9.987 9.61 20" fill="#000" fill-rule="evenodd"/>
  </symbol>

  <symbol id="icon-garbage-cart" viewBox="0 0 297 297" xml:space="preserve" xmlns="http://www.w3.org/2000/svg">
    <path d="M216.979 150.445c-24.601 0-44.615 20.014-44.615 44.615s20.014 44.615 44.615 44.615c24.6 0 44.615-20.014 44.615-44.615s-20.014-44.615-44.615-44.615zm21.889 56.965a6.747 6.747 0 0 1 0 9.539 6.729 6.729 0 0 1-4.769 1.975 6.729 6.729 0 0 1-4.769-1.975l-12.35-12.35-12.35 12.35c-1.317 1.316-3.044 1.975-4.769 1.975s-3.452-.659-4.769-1.975a6.747 6.747 0 0 1 0-9.539l12.35-12.35-12.352-12.35a6.747 6.747 0 0 1 0-9.539 6.749 6.749 0 0 1 9.539 0l12.35 12.35 12.35-12.35a6.749 6.749 0 0 1 9.539 0 6.747 6.747 0 0 1 0 9.539l-12.35 12.35 12.35 12.35zM227.354 59.832c-.001-10.822-8.806-19.626-19.628-19.626H55.033c-10.822 0-19.626 8.804-19.626 19.626v18.244h191.948V59.832zM216.979 136.957c1.233 0 2.454.052 3.668.128l2.716-45.521h-47.368v62.351c10.515-10.473 25.004-16.958 40.984-16.958zM103.885 13.488h54.99v13.229h13.488V6.744A6.743 6.743 0 0 0 165.619 0H97.14a6.743 6.743 0 0 0-6.744 6.744v19.973h13.488V13.488z"/>
    <path d="M175.994 273.748c0 5.393-4.372 9.764-9.764 9.764a9.763 9.763 0 0 1-9.764-9.764V91.564h-50.173v182.184c0 5.393-4.372 9.764-9.764 9.764a9.763 9.763 0 0 1-9.764-9.764V91.564H39.398l11.881 199.094A6.744 6.744 0 0 0 58.01 297h146.739a6.744 6.744 0 0 0 6.732-6.342l2.243-37.591c-14.686-.815-27.934-7.104-37.73-16.862v37.543z"/>
  </symbol>

  <symbol id="icon-edit-pen" viewBox="0 0 76 76" xml:space="preserve" xmlns="http://www.w3.org/2000/svg">
    <path d="m48.916 10.85 1.4 1.4 3.84-5.12a34.82 34.82 0 0 1 8.475 6.24 34.824 34.824 0 0 1 6.24 8.474l-5.12 3.84 1.399 1.4-2.52 2.52-2.518-2.52-15.395 22.112s-14.554-1.12-23.51 7.837l-.56-.56 14.717-14.717c1.153.488 2.816.542 3.756-.397a3.167 3.167 0 1 0-5.156-1.003L19.247 55.074l-.28-.28c8.957-8.957 7.837-23.511 7.837-23.511l22.112-15.395-2.52-2.519 2.52-2.519ZM54 44h4v4h4v4h-4v4h-4v-4h-4v-4h4v-4Z"/>
  </symbol>

  <symbol id="icon-plus" viewBox="0 0 32 32" xmlns="http://www.w3.org/2000/svg">
    <path d="M28 12h-8V4a4 4 0 1 0-8 0v8H4a4 4 0 1 0 0 8h8v8a4 4 0 1 0 8 0v-8h8a4 4 0 1 0 0-8" fill="#000" fill-rule="evenodd"/>
  </symbol>
</svg>